<svg xmlns="http://www.w3.org/2000/svg" viewBox="0 0 450 920" xml:space="preserve"><style>.st1{fill:#fff}</style><g id="圖層_1"><path d="M382.3 1h-315C33 1 5.2 28.9 5.2 63.2v793.6C5.2 891.1 33 919 67.4 919h315c34.3 0 62.2-27.9 62.2-62.2V63.2C444.5 28.9 416.7 1 382.3 1m56.2 853.6c0 32.2-26.1 58.4-58.3 58.4H69.5c-32.2 0-58.3-26.1-58.3-58.4V65.4C11.2 33.2 37.4 7 69.5 7h310.6c32.2 0 58.3 26.1 58.3 58.4.1 12.6.1 778 .1 789.2"/><path class="st1" d="M21.8 22.5C34.5 11.2 50.8 2.4 70 2.6l298.7.6c38.9 2.3 73.1 23.6 74.4 68.9 0 5 2.7-37.9-25.1-56.7-13.2-9.5-32.7-13.6-44.4-13.8-19.2-.4-272.2-.7-303.2 0-26 .5-38.2 11-48.6 20.9" style="opacity:.7"/><path d="M380.2 7H69.5C37.4 7 11.2 33.2 11.2 65.4v789.2c0 32.2 26.1 58.4 58.3 58.4h310.6c32.2 0 58.3-26.1 58.3-58.4V65.4c.1-32.2-26-58.4-58.2-58.4m55.2 845.8c0 31.5-25.5 57.1-57 57.1H71.3c-31.5 0-57-25.6-57-57.1V67.1c0-31.5 25.5-57.1 57-57.1h307.1c31.5 0 57 25.6 57 57.1z" style="fill:#1a1a1a"/><path d="M380.2 913.3H69.5c-32.3 0-58.6-26.3-58.6-58.7V65.4C11 33.1 37.2 6.7 69.5 6.7h310.6c32.3 0 58.6 26.3 58.6 58.7v789.2c.1 32.3-26.2 58.7-58.5 58.7M69.5 7.3c-32 0-58 26-58 58.1v789.2c0 32 26 58.1 58 58.1h310.6c32 0 58-26 58-58.1V65.4c0-32-26-58.1-58-58.1zm308.9 902.9H71.3c-31.6 0-57.3-25.7-57.3-57.4V67.2C14 35.5 39.7 9.8 71.3 9.8h307.1c31.6 0 57.3 25.7 57.3 57.4v785.7c0 31.6-25.7 57.3-57.3 57.3M71.3 10.4c-31.3 0-56.7 25.5-56.7 56.8v785.7c0 31.3 25.5 56.8 56.7 56.8h307.1c31.3 0 56.8-25.5 56.8-56.8V67.2c0-31.3-25.5-56.8-56.8-56.8z"/><path class="st1" d="M21.8 897.5c12.7 11.3 29 20.1 48.2 19.9l298.7-.6c38.9-2.3 73.1-23.6 74.4-68.9 0-5 2.7 37.9-25.1 56.7-13.2 9.5-32.7 13.6-44.4 13.8-19.2.4-272.2.7-303.2 0-26-.5-38.2-11-48.6-20.9" style="opacity:.5"/><linearGradient id="SVGID_1_" gradientUnits="userSpaceOnUse" x1="-2450.778" y1="2305.945" x2="-2352.578" y2="2305.945" gradientTransform="matrix(0 1 1 0 -1860.745 2643.778)"><stop offset="0" style="stop-color:#3b3b3b"/><stop offset=".019" style="stop-color:#e6e6e6"/><stop offset=".038" style="stop-color:#333"/><stop offset=".082" style="stop-color:#000"/><stop offset=".105" style="stop-color:#666"/><stop offset=".905" style="stop-color:#313131"/><stop offset=".939" style="stop-color:#000"/><stop offset=".965" style="stop-color:#333"/><stop offset=".983" style="stop-color:#ccc"/><stop offset="1" style="stop-color:#2c2c2c"/></linearGradient><path style="fill:url(#SVGID_1_)" d="M444.5 193h1.4v98.2h-1.4z"/><linearGradient id="SVGID_2_" gradientUnits="userSpaceOnUse" x1="-2450.778" y1="2306.995" x2="-2352.578" y2="2306.995" gradientTransform="matrix(0 1 1 0 -1860.745 2643.778)"><stop offset="0" style="stop-color:#a0a0a0"/><stop offset=".064" style="stop-color:#333"/><stop offset=".186" style="stop-color:#8a8a8a"/><stop offset=".806" style="stop-color:#8a8a8a"/><stop offset=".919" style="stop-color:#333"/><stop offset="1" style="stop-color:#a0a0a0"/></linearGradient><path d="M445.9 291.2V193l.7.9c-.4 7-.3 89.5 0 96.5z" style="fill:url(#SVGID_2_)"/><linearGradient id="SVGID_3_" gradientUnits="userSpaceOnUse" x1="-2450.778" y1="-2022.577" x2="-2384.778" y2="-2022.577" gradientTransform="rotate(90 -2331.677 312.1)"><stop offset="0" style="stop-color:#3b3b3b"/><stop offset=".019" style="stop-color:#e6e6e6"/><stop offset=".038" style="stop-color:#333"/><stop offset=".082" style="stop-color:#000"/><stop offset=".105" style="stop-color:#666"/><stop offset=".905" style="stop-color:#313131"/><stop offset=".939" style="stop-color:#000"/><stop offset=".965" style="stop-color:#333"/><stop offset=".983" style="stop-color:#ccc"/><stop offset="1" style="stop-color:#2c2c2c"/></linearGradient><path style="fill:url(#SVGID_3_)" d="M2.3 193h1.4v66H2.3z"/><linearGradient id="SVGID_4_" gradientUnits="userSpaceOnUse" x1="-2450.778" y1="-2021.527" x2="-2384.778" y2="-2021.527" gradientTransform="rotate(90 -2331.677 312.1)"><stop offset="0" style="stop-color:#a0a0a0"/><stop offset=".064" style="stop-color:#333"/><stop offset=".186" style="stop-color:#8a8a8a"/><stop offset=".806" style="stop-color:#8a8a8a"/><stop offset=".919" style="stop-color:#333"/><stop offset="1" style="stop-color:#a0a0a0"/></linearGradient><path d="M2.3 259v-66l-.7.9c.4 7 .3 57.3 0 64.3z" style="fill:url(#SVGID_4_)"/><linearGradient id="SVGID_5_" gradientUnits="userSpaceOnUse" x1="4.45" y1="662.9" x2="4.45" y2="728.9" gradientTransform="matrix(1 0 0 -1 0 922)"><stop offset="0" style="stop-color:#353540"/><stop offset=".053" style="stop-color:#000"/><stop offset=".518" style="stop-color:#333"/><stop offset=".965" style="stop-color:#000"/><stop offset="1" style="stop-color:#262c31"/></linearGradient><path style="fill:url(#SVGID_5_)" d="M3.7 193.1h1.5v66H3.7z"/><linearGradient id="SVGID_6_" gradientUnits="userSpaceOnUse" x1="-2367.978" y1="-2022.577" x2="-2301.978" y2="-2022.577" gradientTransform="rotate(90 -2331.677 312.1)"><stop offset="0" style="stop-color:#3b3b3b"/><stop offset=".019" style="stop-color:#e6e6e6"/><stop offset=".038" style="stop-color:#333"/><stop offset=".082" style="stop-color:#000"/><stop offset=".105" style="stop-color:#666"/><stop offset=".905" style="stop-color:#313131"/><stop offset=".939" style="stop-color:#000"/><stop offset=".965" style="stop-color:#333"/><stop offset=".983" style="stop-color:#ccc"/><stop offset="1" style="stop-color:#2c2c2c"/></linearGradient><path style="fill:url(#SVGID_6_)" d="M2.3 275.8h1.4v66H2.3z"/><linearGradient id="SVGID_7_" gradientUnits="userSpaceOnUse" x1="-2367.978" y1="-2021.527" x2="-2301.978" y2="-2021.527" gradientTransform="rotate(90 -2331.677 312.1)"><stop offset="0" style="stop-color:#a0a0a0"/><stop offset=".064" style="stop-color:#333"/><stop offset=".186" style="stop-color:#8a8a8a"/><stop offset=".806" style="stop-color:#8a8a8a"/><stop offset=".919" style="stop-color:#333"/><stop offset="1" style="stop-color:#a0a0a0"/></linearGradient><path d="M2.3 341.8v-66l-.7.9c.4 7 .3 57.3 0 64.3z" style="fill:url(#SVGID_7_)"/><linearGradient id="SVGID_8_" gradientUnits="userSpaceOnUse" x1="4.45" y1="580.2" x2="4.45" y2="646.2" gradientTransform="matrix(1 0 0 -1 0 922)"><stop offset="0" style="stop-color:#353540"/><stop offset=".053" style="stop-color:#000"/><stop offset=".518" style="stop-color:#333"/><stop offset=".965" style="stop-color:#000"/><stop offset="1" style="stop-color:#262c31"/></linearGradient><path style="fill:url(#SVGID_8_)" d="M3.7 275.8h1.5v66H3.7z"/><linearGradient id="SVGID_9_" gradientUnits="userSpaceOnUse" x1="-2528.878" y1="-2022.577" x2="-2493.078" y2="-2022.577" gradientTransform="rotate(90 -2331.677 312.1)"><stop offset="0" style="stop-color:#3b3b3b"/><stop offset=".019" style="stop-color:#e6e6e6"/><stop offset=".038" style="stop-color:#333"/><stop offset=".082" style="stop-color:#000"/><stop offset=".105" style="stop-color:#666"/><stop offset=".905" style="stop-color:#313131"/><stop offset=".939" style="stop-color:#000"/><stop offset=".965" style="stop-color:#333"/><stop offset=".983" style="stop-color:#ccc"/><stop offset="1" style="stop-color:#2c2c2c"/></linearGradient><path style="fill:url(#SVGID_9_)" d="M2.3 114.9h1.4v35.8H2.3z"/><linearGradient id="SVGID_10_" gradientUnits="userSpaceOnUse" x1="-2528.878" y1="-2021.527" x2="-2493.078" y2="-2021.527" gradientTransform="rotate(90 -2331.677 312.1)"><stop offset="0" style="stop-color:#a0a0a0"/><stop offset=".064" style="stop-color:#333"/><stop offset=".186" style="stop-color:#8a8a8a"/><stop offset=".806" style="stop-color:#8a8a8a"/><stop offset=".919" style="stop-color:#333"/><stop offset="1" style="stop-color:#a0a0a0"/></linearGradient><path d="M2.3 150.7v-35.8l-.7.9c.4 7 .3 27.1 0 34.1z" style="fill:url(#SVGID_10_)"/><linearGradient id="SVGID_11_" gradientUnits="userSpaceOnUse" x1="4.45" y1="771.3" x2="4.45" y2="807.1" gradientTransform="matrix(1 0 0 -1 0 922)"><stop offset="0" style="stop-color:#353540"/><stop offset=".053" style="stop-color:#000"/><stop offset=".518" style="stop-color:#333"/><stop offset=".965" style="stop-color:#000"/><stop offset="1" style="stop-color:#262c31"/></linearGradient><path style="fill:url(#SVGID_11_)" d="M3.7 114.9h1.5v35.8H3.7z"/><path d="M246.6 917.4h-43.5c-.9 0-1.7.1-1.9.3l-1.9.8c-.4.2.6.5 1.9.5h47.3c1.3 0 2.3-.2 1.9-.5l-1.9-.8c-.3-.2-1-.3-1.9-.3"/></g></svg>